<svg width="72" height="72" viewBox="0 0 72 72" fill="none" xmlns="http://www.w3.org/2000/svg">
<g clip-path="url(#clip0_362_2335)">
<path fill-rule="evenodd" clip-rule="evenodd" d="M48.3767 0.19532C49.3766 -0.368024 50.613 0.354506 50.613 1.50221V25.285C50.613 28.2801 52.3949 30.988 55.1455 32.1731L67.6366 37.5545L70.0936 38.613C71.2335 39.1041 71.3178 40.6883 70.2363 41.2975L56.4984 49.0372C56.0904 49.2671 55.5986 49.2932 55.1686 49.108L38.1219 41.7639C35.3713 40.5788 33.5893 37.8709 33.5893 34.8758V9.40285C33.5893 8.86129 33.8813 8.36178 34.3531 8.09596L48.3767 0.19532ZM11 70.4994V19.6324C11 19.0908 11.2919 18.5913 11.7637 18.3255L25.7873 10.4248C26.7872 9.8615 28.0236 10.584 28.0236 11.7317V62.5988C28.0236 63.1403 27.7317 63.6399 27.2599 63.9057L13.2363 71.8063C12.2364 72.3697 11 71.6471 11 70.4994Z" fill="black"/>
</g>
<defs>
<clipPath id="clip0_362_2335">
<rect width="72" height="72" fill="white"/>
</clipPath>
</defs>
</svg>
